<svg width="24" height="24" fill="none" xmlns="http://www.w3.org/2000/svg"><path fill-rule="evenodd" clip-rule="evenodd" d="M13.032 8.64L12.6 11h4.03c.41 0 .955.224 1.473.935.515.708.896 1.786.896 3.065 0 1.28-.38 2.357-.896 3.065-.518.71-1.063.935-1.473.935H9v-8.085l.483-1.126 1.719-4.002c.112-.172.368-.39.796-.51.47-.131.868-.064 1.07.043.295.157.405.276.438.317a.12.12 0 01.031.064c.009.043.019.142-.005.34a8.012 8.012 0 01-.148.764l-.003.013c-.038.17-.083.373-.122.578l-.001.01-.226 1.234zm.977-5.085c-1.488-.793-3.783-.194-4.6 1.337L7.646 9H4a1 1 0 00-1 1v10a1 1 0 001 1h12.63c2.414 0 4.37-2.686 4.37-6 0-3.13-1.745-5.7-3.972-5.976A3.231 3.231 0 0016.63 9h-1.632l.226-1.235c.032-.17.071-.346.111-.524L15.39 7c.26-1.194.42-2.485-1.38-3.445zM5 19v-8h2v8H5z" fill="#fff"/></svg>